<svg xmlns="http://www.w3.org/2000/svg" xmlns:xlink="http://www.w3.org/1999/xlink" class="main-svg" width="700" height="500" style="" viewBox="0 0 700 500"><rect x="0" y="0" width="700" height="500" style="fill: rgb(255, 255, 255); fill-opacity: 1;"/><defs id="defs-addb13"><g class="clips"><clipPath id="clipaddb13xyplot" class="plotclip"><rect width="488" height="320"/></clipPath><clipPath class="axesclip" id="clipaddb13x"><rect x="80" y="0" width="488" height="500"/></clipPath><clipPath class="axesclip" id="clipaddb13y"><rect x="0" y="100" width="700" height="320"/></clipPath><clipPath class="axesclip" id="clipaddb13xy"><rect x="80" y="100" width="488" height="320"/></clipPath></g><g class="gradients"/><g class="patterns"/></defs><g class="bglayer"><rect class="bg" x="80" y="100" width="488" height="320" style="fill: rgb(229, 236, 246); fill-opacity: 1; stroke-width: 0;"/></g><g class="layer-below"><g class="imagelayer"/><g class="shapelayer"/></g><g class="cartesianlayer"><g class="subplot xy"><g class="layer-subplot"><g class="shapelayer"/><g class="imagelayer"/></g><g class="minor-gridlayer"><g class="x"/><g class="y"/></g><g class="gridlayer"><g class="x"><path class="xgrid crisp" transform="translate(145.11,0)" d="M0,100v320" style="stroke: rgb(255, 255, 255); stroke-opacity: 1; stroke-width: 1px;"/><path class="xgrid crisp" transform="translate(307.75,0)" d="M0,100v320" style="stroke: rgb(255, 255, 255); stroke-opacity: 1; stroke-width: 1px;"/><path class="xgrid crisp" transform="translate(470.38,0)" d="M0,100v320" style="stroke: rgb(255, 255, 255); stroke-opacity: 1; stroke-width: 1px;"/></g><g class="y"><path class="ygrid crisp" transform="translate(0,347.26)" d="M80,0h488" style="stroke: rgb(255, 255, 255); stroke-opacity: 1; stroke-width: 1px;"/><path class="ygrid crisp" transform="translate(0,277.25)" d="M80,0h488" style="stroke: rgb(255, 255, 255); stroke-opacity: 1; stroke-width: 1px;"/><path class="ygrid crisp" transform="translate(0,207.24)" d="M80,0h488" style="stroke: rgb(255, 255, 255); stroke-opacity: 1; stroke-width: 1px;"/><path class="ygrid crisp" transform="translate(0,137.23)" d="M80,0h488" style="stroke: rgb(255, 255, 255); stroke-opacity: 1; stroke-width: 1px;"/></g></g><g class="zerolinelayer"><path class="yzl zl crisp" transform="translate(0,417.28)" d="M80,0h488" style="stroke: rgb(255, 255, 255); stroke-opacity: 1; stroke-width: 2px;"/></g><path class="xlines-below"/><path class="ylines-below"/><g class="overlines-below"/><g class="xaxislayer-below"/><g class="yaxislayer-below"/><g class="overaxes-below"/><g class="plot" transform="translate(80,100)" clip-path="url(#clipaddb13xyplot)"><g class="scatterlayer mlayer"><g class="trace scatter trace0d7f61" style="stroke-miterlimit: 2; opacity: 1;"><g class="fills"/><g class="errorbars"/><g class="lines"><path class="js-line" d="M0,286.75L2.76,284.42L5.34,284.6L8.11,277.85L10.78,263.13L13.54,262.36L16.21,242.14L18.97,212.11L21.73,202.92L27.17,199.45L29.84,195.33L35.36,192.53L37.85,192.28L40.61,188.53L43.29,182.1L46.05,167.63L48.72,165.31L51.48,163.29L54.24,163.4L56.91,157.69L59.68,157.08L67.87,152.4L70.36,151.5L73.12,149.99L75.8,139.81L83.99,132.26L86.75,130.66L89.42,119.78L92.18,118.36L94.86,116.54L97.62,106.14L102.87,103.46L105.63,102.73L108.31,99.92L111.07,95.8L116.5,94.14L119.26,93.32L130.13,91.71L132.89,90.46L135.47,89.31L138.23,89.32L143.67,88.01L146.34,86.96L154.53,85.65L157.29,85.49L162.73,82.92L165.49,82.68L173.41,81.77L176.18,81.39L184.37,77.46L187.04,75.07L189.8,72.76L192.47,71.62L200.49,68.44L203.25,68.52L208.68,65.97L211.36,64.06L214.12,63.79L216.88,56.68L219.55,55.59L222.31,55.4L230.51,54.75L233,54.48L249.39,53.26L252.06,52.79L254.82,51.52L257.49,60.29L260.25,59.53L263.02,57.61L265.6,49.17L268.36,48.45L271.03,47.23L273.79,47.17L284.66,46.17L287.42,45.85L317.17,45.55L319.93,44.92L333.38,44.26L336.05,41.5L352.44,40.72L355.11,37.38L357.87,35.34L360.63,35.08L363.13,33.28L365.89,33.15L387.62,30.94L390.38,29.59L398.49,27.9L401.16,27.55L414.79,25.23L417.55,25.17L425.74,24.09L428.24,21.93L452.73,21.16L455.49,20.59L460.75,19.66L463.51,20.39L468.94,20.12L471.61,20.04L474.37,17.38L477.13,17.38L488,16" style="vector-effect: none; fill: none; stroke: rgb(99, 110, 250); stroke-opacity: 1; stroke-width: 2px; opacity: 1;"/></g><g class="points"/><g class="text"/></g><g class="trace scatter trace939230" style="stroke-miterlimit: 2; opacity: 1;"><g class="fills"/><g class="errorbars"/><g class="lines"><path class="js-line" d="M0,304L8.11,269.83L10.78,260.01L18.97,234.2L21.73,226.64L29.84,206.46L32.6,200.46L43.29,179.37L46.05,174.72L56.91,158.15L59.68,154.45L70.36,141.08L73.12,138.06L83.99,127.05L86.75,124.54L97.62,115.32L100.38,113.19L111.07,105.35L113.74,103.54L132.89,92.21L135.47,90.77L157.29,80.45L159.96,79.3L184.37,70.05L187.04,69.13L214.12,60.91L216.88,60.18L246.63,52.92L249.39,52.33L281.99,45.94L284.66,45.46L330.62,38.31L333.38,37.94L376.75,32.64L379.52,32.34L439.1,26.61L441.86,26.38L488,22.83" style="vector-effect: none; fill: none; stroke: rgb(239, 85, 59); stroke-opacity: 1; stroke-width: 2px; opacity: 1;"/></g><g class="points"/><g class="text"/></g></g></g><g class="overplot"/><path class="xlines-above crisp" d="M0,0" style="fill: none;"/><path class="ylines-above crisp" d="M0,0" style="fill: none;"/><g class="overlines-above"/><g class="xaxislayer-above"><g class="xtick"><text text-anchor="middle" x="0" y="433" transform="translate(145.11,0)" style="font-family: 'Open Sans', verdana, arial, sans-serif; font-size: 12px; fill: rgb(42, 63, 95); fill-opacity: 1; white-space: pre; opacity: 1;">2010</text></g><g class="xtick"><text text-anchor="middle" x="0" y="433" style="font-family: 'Open Sans', verdana, arial, sans-serif; font-size: 12px; fill: rgb(42, 63, 95); fill-opacity: 1; white-space: pre; opacity: 1;" transform="translate(307.75,0)">2015</text></g><g class="xtick"><text text-anchor="middle" x="0" y="433" style="font-family: 'Open Sans', verdana, arial, sans-serif; font-size: 12px; fill: rgb(42, 63, 95); fill-opacity: 1; white-space: pre; opacity: 1;" transform="translate(470.38,0)">2020</text></g></g><g class="yaxislayer-above"><g class="ytick"><text text-anchor="end" x="79" y="4.199999999999999" transform="translate(0,417.28)" style="font-family: 'Open Sans', verdana, arial, sans-serif; font-size: 12px; fill: rgb(42, 63, 95); fill-opacity: 1; white-space: pre; opacity: 1;">0</text></g><g class="ytick"><text text-anchor="end" x="79" y="4.199999999999999" style="font-family: 'Open Sans', verdana, arial, sans-serif; font-size: 12px; fill: rgb(42, 63, 95); fill-opacity: 1; white-space: pre; opacity: 1;" transform="translate(0,347.26)">200k</text></g><g class="ytick"><text text-anchor="end" x="79" y="4.199999999999999" style="font-family: 'Open Sans', verdana, arial, sans-serif; font-size: 12px; fill: rgb(42, 63, 95); fill-opacity: 1; white-space: pre; opacity: 1;" transform="translate(0,277.25)">400k</text></g><g class="ytick"><text text-anchor="end" x="79" y="4.199999999999999" style="font-family: 'Open Sans', verdana, arial, sans-serif; font-size: 12px; fill: rgb(42, 63, 95); fill-opacity: 1; white-space: pre; opacity: 1;" transform="translate(0,207.24)">600k</text></g><g class="ytick"><text text-anchor="end" x="79" y="4.199999999999999" style="font-family: 'Open Sans', verdana, arial, sans-serif; font-size: 12px; fill: rgb(42, 63, 95); fill-opacity: 1; white-space: pre; opacity: 1;" transform="translate(0,137.23)">800k</text></g></g><g class="overaxes-above"/></g></g><g class="polarlayer"/><g class="smithlayer"/><g class="ternarylayer"/><g class="geolayer"/><g class="funnelarealayer"/><g class="pielayer"/><g class="iciclelayer"/><g class="treemaplayer"/><g class="sunburstlayer"/><g class="glimages"/><defs id="topdefs-addb13"><g class="clips"/><clipPath id="legendaddb13"><rect width="110" height="48" x="0" y="0"/></clipPath></defs><g class="layer-above"><g class="imagelayer"/><g class="shapelayer"/></g><g class="infolayer"><g class="legend" pointer-events="all" transform="translate(577.76,100)"><rect class="bg" shape-rendering="crispEdges" width="110" height="48" x="0" y="0" style="stroke: rgb(68, 68, 68); stroke-opacity: 1; fill: rgb(255, 255, 255); fill-opacity: 1; stroke-width: 0px;"/><g class="scrollbox" transform="" clip-path="url(#legendaddb13)"><g class="groups"><g class="traces" transform="translate(0,14.5)" style="opacity: 1;"><text class="legendtext" text-anchor="start" x="40" y="4.680000000000001" style="font-family: 'Open Sans', verdana, arial, sans-serif; font-size: 12px; fill: rgb(42, 63, 95); fill-opacity: 1; white-space: pre;">OSM data</text><g class="layers" style="opacity: 1;"><g class="legendfill"/><g class="legendlines"><path class="js-line" d="M5,0h30" style="fill: none; stroke: rgb(99, 110, 250); stroke-opacity: 1; stroke-width: 2px;"/></g><g class="legendsymbols"><g class="legendpoints"/></g></g><rect class="legendtoggle" x="0" y="-9.5" width="104.625" height="19" style="fill: rgb(0, 0, 0); fill-opacity: 0;"/></g><g class="traces" transform="translate(0,33.5)" style="opacity: 1;"><text class="legendtext" text-anchor="start" x="40" y="4.680000000000001" style="font-family: 'Open Sans', verdana, arial, sans-serif; font-size: 12px; fill: rgb(42, 63, 95); fill-opacity: 1; white-space: pre;">Fitted data</text><g class="layers" style="opacity: 1;"><g class="legendfill"/><g class="legendlines"><path class="js-line" d="M5,0h30" style="fill: none; stroke: rgb(239, 85, 59); stroke-opacity: 1; stroke-width: 2px;"/></g><g class="legendsymbols"><g class="legendpoints"/></g></g><rect class="legendtoggle" x="0" y="-9.5" width="104.625" height="19" style="fill: rgb(0, 0, 0); fill-opacity: 0;"/></g></g></g><rect class="scrollbar" rx="20" ry="3" width="0" height="0" x="0" y="0" style="fill: rgb(128, 139, 164); fill-opacity: 1;"/></g><g class="g-gtitle"><text class="gtitle" x="35" y="50" text-anchor="start" dy="0em" style="font-family: 'Open Sans', verdana, arial, sans-serif; font-size: 17px; fill: rgb(42, 63, 95); opacity: 1; font-weight: normal; white-space: pre;">Mapping Saturation</text></g><g class="g-xtitle"><text class="xtitle" x="324" y="460.3" text-anchor="middle" style="font-family: 'Open Sans', verdana, arial, sans-serif; font-size: 14px; fill: rgb(42, 63, 95); opacity: 1; font-weight: normal; white-space: pre;">Date</text></g><g class="g-ytitle"><text class="ytitle" transform="rotate(-90,24.840625000000003,260)" x="24.840625000000003" y="260" text-anchor="middle" style="font-family: 'Open Sans', verdana, arial, sans-serif; font-size: 14px; fill: rgb(42, 63, 95); opacity: 1; font-weight: normal; white-space: pre;">Value</text></g></g></svg>